inDegrees=no
num_controls=7
num_derivatives=13
num_iterations=64
num_multipliers=7
num_parameters=0
num_slacks=7
num_states=26
objective=0.470773
objective_accelerations=0.057172
objective_balance=0.000654
objective_effort=0.015311
objective_height=0.388687
objective_ligament=0.008948
solver_duration=869.606243
status=Solve_Succeeded
success=true
DataType=double
version=3
OpenSimVersion=4.5
endheader
time	/jointset/ground_pelvis/pelvis_tilt/value	/jointset/ground_pelvis/pelvis_tx/value	/jointset/ground_pelvis/pelvis_ty/value	/jointset/hip_l/hip_flexion_l/value	/jointset/hip_l/hip_adduction_l/value	/jointset/hip_l/hip_rotation_l/value	/jointset/back/lumbar_extension/value	/jointset/patellofemoral_l/patellar_flexion_l/value	/jointset/knee_l/knee_flexion_l/value	/jointset/knee_l/knee_adduction_l/value	/jointset/knee_l/knee_rotation_l/value	/jointset/ankle_l/ankle_angle_l/value	/jointset/subtalar_l/subtalar_angle_l/value	/jointset/ground_pelvis/pelvis_tilt/speed	/jointset/ground_pelvis/pelvis_tx/speed	/jointset/ground_pelvis/pelvis_ty/speed	/jointset/hip_l/hip_flexion_l/speed	/jointset/hip_l/hip_adduction_l/speed	/jointset/hip_l/hip_rotation_l/speed	/jointset/back/lumbar_extension/speed	/jointset/patellofemoral_l/patellar_flexion_l/speed	/jointset/knee_l/knee_flexion_l/speed	/jointset/knee_l/knee_adduction_l/speed	/jointset/knee_l/knee_rotation_l/speed	/jointset/ankle_l/ankle_angle_l/speed	/jointset/subtalar_l/subtalar_angle_l/speed	/forceset/tau_hip_flexion_l	/forceset/tau_hip_adduction_l	/forceset/tau_hip_rotation_l	/forceset/tau_knee_flexion_l	/forceset/tau_ankle_angle_l	/forceset/tau_subtalar_angle_l	/forceset/tau_lumbar_extension	lambda_cid13_p0	lambda_cid13_p1	lambda_cid13_p2	lambda_cid13_p3	lambda_cid13_p4	lambda_cid13_p5	lambda_cid14_p0	/jointset/ground_pelvis/pelvis_tilt/accel	/jointset/ground_pelvis/pelvis_tx/accel	/jointset/ground_pelvis/pelvis_ty/accel	/jointset/hip_l/hip_flexion_l/accel	/jointset/hip_l/hip_adduction_l/accel	/jointset/hip_l/hip_rotation_l/accel	/jointset/back/lumbar_extension/accel	/jointset/patellofemoral_l/patellar_flexion_l/accel	/jointset/knee_l/knee_flexion_l/accel	/jointset/knee_l/knee_adduction_l/accel	/jointset/knee_l/knee_rotation_l/accel	/jointset/ankle_l/ankle_angle_l/accel	/jointset/subtalar_l/subtalar_angle_l/accel	gamma_cid13_p0	gamma_cid13_p1	gamma_cid13_p2	gamma_cid13_p3	gamma_cid13_p4	gamma_cid13_p5	gamma_cid14_p0
1	-0.3810963498935859	0.009857541395224946	0.635289567443806	1.523808367544109	-0.3528503384119451	0.1041600986033671	-0.4363013924113349	1.410911153364295	1.410911153364477	0.04801896656798326	-0.1744654535883039	0.4350728168290909	0.2396373933996319	-0.1356477810080104	0.003593470447548005	0.03305994900748515	0.02026291162002992	0.002862990838361423	-0.06126950736208455	-0.0008281350561201212	-0.1563762283981512	-0.1563762283981416	0.003115793260616242	0.0003457371762370812	-0.05365480064274186	-0.02679911039342826	-0.2065970469067236	0.08056331562324631	-0.01031329578268183	-0.2854189672720019	-0.02553587465068614	-0.005954675556497609	0.1894731242880443	-42.07905184662872	18.68687407029495	-13.23541992034532	7.272980979818346	-531.7571572860248	-39.28979127388467	-0.02457805572366422	1.379737722327544	0.1671073619723155	1.747628729796112	-5.833276702729324	-0.08981737186317164	-1.527820755144897	-0.02944361685551914	-5.231474576323103	-5.231474576322843	-0.6181805479468125	-0.02030539624513182	-1.220374951679222	-0.8578604445820582	-1.220660220931663e-09	-9.727410042648241e-08	-2.392058489182082e-08	-5.975888856683997e-09	-3.613938455417371e-09	-9.902001350114419e-08	-7.540566735516185e-11
1.01	-0.3823844726380359	0.009901879233206845	0.6357072787348194	1.523720447613588	-0.3528257517951434	0.1034723914134869	-0.4363101278574917	1.409086433186098	1.409086433186258	0.04801874010044894	-0.1744617992547741	0.4344754177441108	0.2393273767605922	-0.121965213399659	0.005283441968424411	0.05046827648242899	-0.03783406633722426	0.002056757807519066	-0.07625973192305036	-0.0009036014266747126	-0.2085410310936714	-0.2085410310936872	-0.003156136443907892	0.0003831158107787504	-0.06581785946803843	-0.03518912481349269	-0.2070156419780973	0.08053064045685385	-0.01036658487383783	-0.2842935052384841	-0.02589889203629839	-0.005892726558028109	0.1897021061777812	-42.14343513387578	18.61498445209604	-13.15969839714068	7.150602584981245	-531.4534165054133	-39.1972231440398	-0.0245946847307215	1.364250014036817	0.1713415260647819	1.735328540349054	-5.795983090677356	-0.07565459916377984	-1.482801461191396	0.005704766131197942	-5.204966586689535	-5.20496658669339	-0.6309691592820521	0.01544345744580008	-1.21320383916667	-0.8272841177300685	-1.196646539120339e-09	-1.260934949291835e-07	-3.303395971415002e-08	-1.116616979697842e-08	-6.515927780740014e-09	-1.247215807529981e-07	-5.323558925089247e-10
1.02	-0.3835354229596311	0.009963396682181189	0.6362986520573833	1.523051942953789	-0.3528091531747459	0.1026351463470694	-0.4363191573846428	1.406740868286842	1.406740868286989	0.04795594034035289	-0.1744578343420683	0.4337566015726336	0.2389339175419505	-0.1082132964333616	0.007029392646037461	0.06779235531758868	-0.09585403423262183	0.00126539155792	-0.09117708266877844	-0.0008869512657397394	-0.2605451726101227	-0.2605451726101632	-0.00939886525150699	0.0004078530109986617	-0.07793821794181757	-0.04348762631402031	-0.2074342370495012	0.0804979652904461	-0.0104198739650103	-0.2831680432049739	-0.02626190942191246	-0.005830777559584432	0.1899310880674824	-42.21189228922136	18.54054343018144	-13.07984090565111	7.031118469636011	-531.2716618542947	-39.11395918899605	-0.02461487324767488	1.393607593916845	0.1783031933195376	1.730779001839275	-5.817874690357939	-0.086844015614473	-1.513245992097339	-0.01102031055695994	-5.199342340509349	-5.199342340508956	-0.6123403685617869	-0.02283368310946781	-1.211834881375927	-0.8395578606747474	-1.113424822019094e-09	-1.563836711417052e-07	-4.262316855949244e-08	-1.621053466620137e-08	-9.795724634405653e-09	-1.542823872826943e-07	-6.45381349403588e-10
1.03	-0.3845487892003582	0.01004264833225996	0.6370627538649908	1.521804064598717	-0.3528003558055219	0.1016491221444784	-0.4363272696896366	1.403876090476426	1.403876090476489	0.04783089456718005	-0.1744536690964407	0.4329166710333603	0.2384579437314109	-0.09447726058093124	0.008829766326176847	0.08500481714188024	-0.1536642429189838	0.0005002152514685327	-0.1060135148133483	-0.0006902919560095059	-0.3123811031357974	-0.312381103135822	-0.01560131167538661	0.0004242747423516117	-0.09005298325389652	-0.05169071789252833	-0.2076207230124228	0.08048005907643063	-0.01045698834473695	-0.2818821467371025	-0.02651512042376573	-0.005764794613030571	0.1900112158119133	-42.22471203931215	18.44969974254369	-12.99176122302806	6.887835668410658	-530.8106130518908	-39.01058201893346	-0.02464340858673842	1.361005631110705	0.182224517336304	1.712998777620186	-5.753984546505142	-0.07042221067887872	-1.466716881290986	0.04179172136982656	-5.171325306402927	-5.171325306400648	-0.6228687112834638	0.01372057542056898	-1.212070147367076	-0.8081862095918765	-1.029598941292442e-09	-1.866888553308578e-07	-5.221723285404928e-08	-2.125341059592359e-08	-1.307937666693194e-08	-1.838825738050216e-07	-7.548973698874423e-10
